<?xml version="1.0" encoding="UTF-8"?>
<svg xmlns="http://www.w3.org/2000/svg" width="78" height="65" viewBox="0 0 78 65" fill="none">
  <path d="M44.4401 13.5132C26.5921 18.0984 24.6817 5.76772 11.7096 9.43951C-4.70109 14.043 23.9176 64.3703 23.9176 64.3703L23.9904 64.7539C23.9904 64.7539 -17.9825 6.44362 9.10793 0.470104C26.0463 -3.27476 23.5355 16.71 45.8956 12.5815L44.4401 13.5132Z" fill="#333D67"></path>
  <path d="M65.727 14.9564C70.4573 16.3447 71.5308 21.3866 70.6939 27.9812H75.6607C78.6445 17.185 77.7894 8.14255 68.3287 6.0783C51.3176 2.2421 53.8283 22.2452 31.541 18.0984L32.9965 18.9387C50.699 23.6152 52.7549 11.0471 65.727 14.9564Z" fill="#B44196"></path>
</svg>
