<?xml version="1.0" encoding="UTF-8"?>
<svg xmlns="http://www.w3.org/2000/svg" width="164" height="65" viewBox="0 0 164 65" fill="none">
  <g clip-path="url(#clip0_36_65)">
    <path d="M44.4836 13.6641C26.6355 18.2493 24.7252 5.9186 11.7531 9.59039C-4.65763 14.1938 23.9611 64.5212 23.9611 64.5212L24.0338 64.9048C24.0338 64.9048 -17.939 6.5945 9.15139 0.620983C26.0897 -3.12388 23.579 16.8609 45.9391 12.7324L44.4836 13.6641Z" fill="#333D67"></path>
    <path d="M65.7704 15.1073C70.5008 16.4956 71.5742 21.5375 70.7373 28.1321H75.7042C78.688 17.3359 77.8329 8.29342 68.3721 6.22918C51.361 2.39298 53.8718 22.396 31.5845 18.2493L33.04 19.0896C50.7424 23.7661 52.7983 11.198 65.7704 15.1073Z" fill="#B44196"></path>
    <path d="M36.9878 38.1064C36.9878 45.2673 39.4804 49.615 44.4655 49.615C46.2666 49.615 48.1042 48.6469 48.9229 47.1489V41.3398H45.739V40.3351H54.8359V41.3398H52.5435V50.1996H52.0158C51.7793 49.7429 51.5246 49.3228 50.7787 49.3228C49.6325 49.3228 47.1763 50.565 44.1744 50.565C37.4245 50.565 33.0034 46.8749 33.0034 38.1978C33.0034 29.7946 38.1522 25.52 44.52 25.52C47.2127 25.52 49.3232 26.5978 50.3966 26.5978C50.9242 26.5978 51.0516 26.3603 51.2881 25.9036H51.8157L52.0522 33.1011H51.2881C50.251 28.7169 48.1042 26.5065 44.3017 26.5065C39.6623 26.5065 36.9878 29.9773 36.9878 38.1064Z" fill="#333D67"></path>
    <path d="M66.789 41.9427V39.4035C66.789 36.2432 66.0612 34.1972 63.1866 34.1972C61.8403 34.1972 60.4212 34.5809 60.4212 35.7683C60.4212 35.9144 60.4576 36.0788 60.494 36.2615H61.4582C61.6402 36.7182 61.7311 37.1566 61.7311 37.6133C61.7311 38.8555 60.8942 39.5862 59.7662 39.5862C58.62 39.5862 57.965 38.7094 57.965 37.3941C57.965 34.8183 60.7305 33.3569 63.9508 33.3569C68.0989 33.3569 70.1184 34.9279 70.1184 39.915V46.9663C70.1184 48.3912 70.5369 48.8844 71.301 48.8844C72.1743 48.8844 72.6474 48.3912 72.8657 45.6145L73.6662 45.6876C73.5206 49.1584 72.4836 50.5833 70.1002 50.5833C68.2627 50.5833 67.1529 49.7065 66.9163 48.0807C66.043 49.6699 64.2601 50.5833 62.1132 50.5833C59.5115 50.5833 57.3101 49.5421 57.3101 46.5462C57.3101 43.0388 60.3484 41.9245 64.7513 41.9245H66.789V41.9427ZM66.789 45.8703V42.8196H65.5154C61.9495 42.8196 60.8396 44.4819 60.8396 46.5462C60.8396 48.2451 61.6038 49.2863 63.2958 49.2863C65.097 49.268 66.789 47.9893 66.789 45.8703Z" fill="#333D67"></path>
    <path d="M80.7255 40.8647V49.3409H84.4006V50.236H74.8125V49.3409H77.4142V34.6172H74.8125V33.7221H80.7255V37.0651C81.4168 34.5989 83.0179 33.375 84.9828 33.375C87.1296 33.375 88.476 34.6903 88.476 36.5353C88.476 38.5447 87.4025 39.2389 86.2563 39.2389C85.0737 39.2389 84.3096 38.4351 84.3096 37.0468C84.3096 36.7362 84.346 36.4257 84.4188 36.1151H85.4922C85.565 35.9142 85.565 35.695 85.565 35.5671C85.565 34.8364 85.0192 34.6903 84.4552 34.6903C82.4539 34.672 80.7255 37.7227 80.7255 40.8647Z" fill="#333D67"></path>
    <path d="M102.012 47.5689C100.902 49.3408 99.3196 50.583 96.5724 50.583C92.497 50.583 89.8589 47.7698 89.8589 42.1434C89.8589 36.3708 92.6971 33.3566 97.1546 33.3566C99.5743 33.3566 101.066 34.3248 101.994 35.7862V25.0814H98.7374V24.1863H105.342V49.3408H108.144V50.2359H102.303L102.012 47.5689ZM102.121 44.372V38.91C102.121 36.9919 100.466 34.4344 97.755 34.4344C94.7712 34.4344 93.4976 36.9371 93.4976 42.0155C93.4976 46.4545 94.2982 49.286 97.3365 49.286C99.7563 49.2677 102.121 47.3131 102.121 44.372Z" fill="#333D67"></path>
    <path d="M117.549 33.3567C121.916 33.3567 124.081 36.0238 123.881 41.2848H113.147V41.7781C113.147 46.7834 114.293 49.4139 118.059 49.4139C120.861 49.4139 122.425 47.642 122.935 45.1759L123.935 45.322C123.353 48.1717 121.625 50.6013 117.222 50.6013C111.891 50.6013 109.508 47.2401 109.508 42.1617C109.526 36.0603 112.946 33.3567 117.549 33.3567ZM120.424 40.3349C120.624 36.5535 119.878 34.1787 117.24 34.1787C114.675 34.1787 113.438 36.3708 113.183 40.3349H120.424Z" fill="#333D67"></path>
    <path d="M131.74 33.7038V36.9737C132.541 35.2748 134.342 33.3567 137.835 33.3567C141.019 33.3567 142.948 34.9642 142.948 39.1658V49.3409H145.586V50.236H137.035V49.3409H139.637V38.5995C139.637 36.0238 139.018 34.5989 136.871 34.5989C134.178 34.5989 131.759 36.9006 131.759 40.1157V49.3226H134.397V50.2177H125.846V49.3226H128.447V34.5989H125.846V33.7038H131.74Z" fill="#333D67"></path>
    <path d="M156.902 41.9425V39.4033C156.902 36.243 156.175 34.197 153.3 34.197C151.954 34.197 150.534 34.5806 150.534 35.768C150.534 35.9142 150.571 36.0786 150.607 36.2612H151.572C151.753 36.7179 151.844 37.1564 151.844 37.613C151.844 38.8552 151.007 39.586 149.879 39.586C148.733 39.586 148.078 38.7091 148.078 37.3938C148.078 34.8181 150.844 33.3567 154.064 33.3567C158.212 33.3567 160.232 34.9277 160.232 39.9148V46.9661C160.232 48.391 160.65 48.8842 161.414 48.8842C162.288 48.8842 162.761 48.391 162.979 45.6143L163.779 45.6873C163.634 49.1582 162.597 50.5831 160.214 50.5831C158.376 50.5831 157.266 49.7062 157.03 48.0804C156.156 49.6697 154.373 50.5831 152.226 50.5831C149.625 50.5831 147.423 49.5418 147.423 46.5459C147.423 43.0385 150.462 41.9242 154.865 41.9242H156.902V41.9425ZM156.902 45.87V42.8193H155.629C152.063 42.8193 150.953 44.4817 150.953 46.5459C150.953 48.2448 151.717 49.2861 153.409 49.2861C155.21 49.2678 156.902 47.9891 156.902 45.87Z" fill="#333D67"></path>
    <path d="M35.0957 55.4058H37.5155C39.7715 55.4058 41.2816 56.7941 41.2816 59.1506C41.2816 61.5437 39.7715 62.9138 37.5155 62.9138H35.0957V55.4058ZM37.4427 62.2744C39.2803 62.2744 40.5174 61.1783 40.5174 59.1689C40.5174 57.1777 39.2803 56.0817 37.4427 56.0817H35.8416V62.2744H37.4427Z" fill="#B44196"></path>
    <path d="M47.231 55.4058H51.4519V56.0634H47.9769V58.8035H50.8151V59.4612H47.9769V62.2561H51.652V62.9138H47.2492V55.4058H47.231Z" fill="#B44196"></path>
    <path d="M57.583 55.4058H58.2926L62.1132 60.813C62.368 61.1783 62.7318 61.836 62.7318 61.836H62.75C62.75 61.836 62.6772 61.2149 62.6772 60.813V55.4058H63.405V62.9138H62.6954L58.8748 57.5065C58.6201 57.1412 58.2562 56.4836 58.2562 56.4836H58.238C58.238 56.4836 58.3108 57.1047 58.3108 57.5065V62.9138H57.583V55.4058Z" fill="#B44196"></path>
    <path d="M71.5379 56.0817H68.8452V55.4241H74.9583V56.0817H72.2656V62.9321H71.5379V56.0817Z" fill="#B44196"></path>
    <path d="M83.6 60.539H80.5798L79.7247 62.9321H78.9424L81.6896 55.4241H82.472L85.2192 62.9321H84.4369L83.6 60.539ZM82.0717 56.1913C82.0717 56.1913 81.908 56.8124 81.7806 57.1595L80.7799 59.8814H83.3635L82.381 57.1595C82.2536 56.8124 82.0899 56.1913 82.0899 56.1913H82.0717Z" fill="#B44196"></path>
    <path d="M90.7139 55.4058H91.4416V62.2561H94.9166V62.9138H90.7139V55.4058Z" fill="#B44196"></path>
    <path d="M110.891 55.2778C112.619 55.2778 113.547 56.1547 113.547 56.1547L113.147 56.7027C113.147 56.7027 112.273 55.9537 110.909 55.9537C109.089 55.9537 107.87 57.3603 107.87 59.1323C107.87 60.9773 109.144 62.3474 110.836 62.3474C112.292 62.3474 113.183 61.2513 113.183 61.2513V59.9726H111.909V59.315H113.893V62.9137H113.219V62.3474C113.219 62.183 113.238 62.0186 113.238 62.0186H113.219C113.219 62.0186 112.364 63.0416 110.781 63.0416C108.744 63.0416 107.125 61.3792 107.125 59.1506C107.125 56.995 108.744 55.2778 110.891 55.2778Z" fill="#B44196"></path>
    <path d="M119.951 55.4058H122.171C122.935 55.4058 123.281 55.4788 123.572 55.6067C124.281 55.9173 124.7 56.6297 124.7 57.5431C124.7 58.5661 124.118 59.3333 123.281 59.5708V59.5891C123.281 59.5891 123.353 59.6804 123.481 59.8813L125.118 62.9138H124.263L122.571 59.7535H120.679V62.9138H119.951V55.4058ZM122.462 59.0958C123.372 59.0958 123.936 58.5113 123.936 57.5613C123.936 56.9402 123.699 56.4836 123.262 56.2461C123.044 56.1365 122.771 56.0634 122.189 56.0634H120.679V59.0958H122.462Z" fill="#B44196"></path>
    <path d="M134.197 55.2778C136.307 55.2778 138.017 56.9585 138.017 59.114C138.017 61.3244 136.325 63.0416 134.197 63.0416C132.068 63.0416 130.376 61.3062 130.376 59.114C130.394 56.9585 132.086 55.2778 134.197 55.2778ZM134.197 62.3657C135.87 62.3657 137.235 60.9591 137.235 59.114C137.235 57.3238 135.87 55.9537 134.197 55.9537C132.505 55.9537 131.158 57.3055 131.158 59.114C131.158 60.9591 132.505 62.3657 134.197 62.3657Z" fill="#B44196"></path>
    <path d="M143.839 55.4058H144.585V60.2832C144.585 61.5802 145.422 62.3657 146.696 62.3657C147.988 62.3657 148.825 61.5802 148.825 60.265V55.4058H149.552V60.3015C149.552 61.9638 148.388 63.0416 146.696 63.0416C144.986 63.0416 143.821 61.9638 143.821 60.3015V55.4058H143.839Z" fill="#B44196"></path>
    <path d="M155.902 55.4058H158.485C159.832 55.4058 160.796 56.2826 160.796 57.671C160.796 59.0776 159.832 59.9727 158.485 59.9727H156.648V62.932H155.92V55.4058H155.902ZM158.394 59.315C159.395 59.315 160.05 58.7122 160.05 57.671C160.05 56.648 159.395 56.0634 158.413 56.0634H156.648V59.2968H158.394V59.315Z" fill="#B44196"></path>
  </g>
  <defs>
    <clipPath id="clip0_36_65">
      <rect width="164" height="65" fill="white"></rect>
    </clipPath>
  </defs>
</svg>
