<svg width="190" height="75" viewBox="0 0 190 75" fill="none" xmlns="http://www.w3.org/2000/svg">
<g clip-path="url(#clip0_1_2)">
<path d="M51.452 15.7407C30.8081 21.0227 28.5985 6.81819 13.5943 11.048C-5.38723 16.351 27.7146 74.3266 27.7146 74.3266L27.7988 74.7685C27.7988 74.7685 -20.7492 7.59681 10.585 0.715496C30.1767 -3.59848 27.2727 19.4234 53.1355 14.6675L51.452 15.7407Z" fill="#333D67"/>
<path d="M76.0732 17.4032C81.5446 19.0025 82.7862 24.8106 81.8182 32.4074H87.5631C91.0143 19.9705 90.0252 9.55387 79.0825 7.17592C59.4066 2.75673 62.3106 25.7997 36.532 21.0227L38.2155 21.9907C58.6911 27.3779 61.069 12.8998 76.0732 17.4032Z" fill="#B44196"/>
<path d="M42.782 43.8973C42.782 52.1465 45.665 57.1549 51.431 57.1549C53.5143 57.1549 55.6397 56.0396 56.5867 54.314V47.6221H52.904V46.4646H63.4259V47.6221H60.7744V57.8283H60.1641C59.8906 57.3022 59.596 56.8182 58.7332 56.8182C57.4074 56.8182 54.5665 58.2492 51.0943 58.2492C43.287 58.2492 38.1734 53.9983 38.1734 44.0025C38.1734 34.3224 44.1288 29.3981 51.4941 29.3981C54.6086 29.3981 57.0497 30.6397 58.2912 30.6397C58.9015 30.6397 59.0488 30.3662 59.3224 29.8401H59.9327L60.2062 38.1313H59.3224C58.1229 33.0808 55.6397 30.5345 51.2416 30.5345C45.8754 30.5345 42.782 34.5328 42.782 43.8973Z" fill="#333D67"/>
<path d="M77.2517 48.3165V45.3914C77.2517 41.7508 76.4099 39.3939 73.085 39.3939C71.5278 39.3939 69.8864 39.8359 69.8864 41.2037C69.8864 41.3721 69.9284 41.5615 69.9705 41.7719H71.0858C71.2963 42.298 71.4015 42.803 71.4015 43.3291C71.4015 44.7601 70.4335 45.6019 69.1288 45.6019C67.803 45.6019 67.0454 44.5918 67.0454 43.0766C67.0454 40.1094 70.2441 38.4259 73.9688 38.4259C78.7668 38.4259 81.1027 40.2357 81.1027 45.9806V54.1035C81.1027 55.745 81.5867 56.3131 82.4705 56.3131C83.4806 56.3131 84.0278 55.745 84.2803 52.5463L85.2062 52.6305C85.0379 56.6288 83.8384 58.2702 81.0816 58.2702C78.9562 58.2702 77.6726 57.2601 77.399 55.3872C76.3889 57.218 74.3266 58.2702 71.8434 58.2702C68.8342 58.2702 66.2879 57.0707 66.2879 53.6195C66.2879 49.5791 69.8022 48.2955 74.8948 48.2955H77.2517V48.3165ZM77.2517 52.8409V49.3266H75.7786C71.654 49.3266 70.3704 51.2416 70.3704 53.6195C70.3704 55.5766 71.2542 56.7761 73.2113 56.7761C75.2946 56.7551 77.2517 55.282 77.2517 52.8409Z" fill="#333D67"/>
<path d="M93.3712 47.0749V56.8392H97.622V57.8704H86.532V56.8392H89.5412V39.8779H86.532V38.8468H93.3712V42.6978C94.1709 39.8569 96.0227 38.447 98.2955 38.447C100.779 38.447 102.336 39.9621 102.336 42.0875C102.336 44.4023 101.094 45.202 99.7685 45.202C98.4007 45.202 97.5168 44.2761 97.5168 42.6768C97.5168 42.319 97.5589 41.9613 97.6431 41.6035H98.8847C98.9688 41.372 98.9688 41.1195 98.9688 40.9722C98.9688 40.1305 98.3375 39.9621 97.6852 39.9621C95.3704 39.9411 93.3712 43.4554 93.3712 47.0749Z" fill="#333D67"/>
<path d="M117.992 54.798C116.709 56.8392 114.878 58.2702 111.7 58.2702C106.987 58.2702 103.935 55.0295 103.935 48.548C103.935 41.8981 107.218 38.4259 112.374 38.4259C115.173 38.4259 116.898 39.5412 117.971 41.2247V28.8931H114.205V27.862H121.843V56.8392H125.084V57.8704H118.329L117.992 54.798ZM118.119 51.1153V44.8232C118.119 42.6136 116.204 39.6675 113.068 39.6675C109.617 39.6675 108.144 42.5505 108.144 48.4007C108.144 53.5143 109.07 56.7761 112.584 56.7761C115.383 56.7551 118.119 54.5034 118.119 51.1153Z" fill="#333D67"/>
<path d="M135.964 38.4259C141.014 38.4259 143.519 41.4983 143.287 47.5589H130.871V48.1271C130.871 53.8931 132.197 56.9234 136.553 56.9234C139.794 56.9234 141.604 54.8822 142.193 52.0413L143.35 52.2096C142.677 55.4924 140.678 58.2913 135.585 58.2913C129.419 58.2913 126.662 54.4192 126.662 48.569C126.684 41.5404 130.64 38.4259 135.964 38.4259ZM139.289 46.4647C139.52 42.1086 138.657 39.3729 135.606 39.3729C132.639 39.3729 131.208 41.8982 130.913 46.4647H139.289Z" fill="#333D67"/>
<path d="M152.378 38.8258V42.5926C153.304 40.6355 155.387 38.4259 159.428 38.4259C163.11 38.4259 165.341 40.2778 165.341 45.1179V56.8392H168.392V57.8704H158.502V56.8392H161.511V44.4655C161.511 41.4983 160.795 39.8569 158.312 39.8569C155.198 39.8569 152.399 42.5084 152.399 46.2121V56.8182H155.45V57.8493H145.56V56.8182H148.569V39.8569H145.56V38.8258H152.378Z" fill="#333D67"/>
<path d="M181.482 48.3165V45.3914C181.482 41.7508 180.64 39.3939 177.315 39.3939C175.758 39.3939 174.116 39.8359 174.116 41.2037C174.116 41.3721 174.158 41.5615 174.2 41.7719H175.316C175.526 42.298 175.631 42.803 175.631 43.3291C175.631 44.7601 174.663 45.6019 173.359 45.6019C172.033 45.6019 171.275 44.5918 171.275 43.0766C171.275 40.1094 174.474 38.4259 178.199 38.4259C182.997 38.4259 185.333 40.2357 185.333 45.9806V54.1035C185.333 55.745 185.817 56.3131 186.7 56.3131C187.71 56.3131 188.258 55.745 188.51 52.5463L189.436 52.6305C189.268 56.6288 188.068 58.2702 185.311 58.2702C183.186 58.2702 181.902 57.2601 181.629 55.3872C180.619 57.218 178.556 58.2702 176.073 58.2702C173.064 58.2702 170.518 57.0707 170.518 53.6195C170.518 49.5791 174.032 48.2955 179.125 48.2955H181.482V48.3165ZM181.482 52.8409V49.3266H180.008C175.884 49.3266 174.6 51.2416 174.6 53.6195C174.6 55.5766 175.484 56.7761 177.441 56.7761C179.524 56.7551 181.482 55.282 181.482 52.8409Z" fill="#333D67"/>
<path d="M40.5934 63.8258H43.3923C46.0017 63.8258 47.7483 65.4251 47.7483 68.1397C47.7483 70.8965 46.0017 72.4748 43.3923 72.4748H40.5934V63.8258ZM43.3081 71.7382C45.4335 71.7382 46.8645 70.4756 46.8645 68.1608C46.8645 65.867 45.4335 64.6044 43.3081 64.6044H41.4562V71.7382H43.3081Z" fill="#B44196"/>
<path d="M54.6296 63.8258H59.5118V64.5833H55.4924V67.7399H58.7753V68.4975H55.4924V71.7172H59.7433V72.4748H54.6507V63.8258H54.6296Z" fill="#B44196"/>
<path d="M66.6035 63.8258H67.4243L71.8434 70.0547C72.1381 70.4756 72.5589 71.2332 72.5589 71.2332H72.58C72.58 71.2332 72.4958 70.5177 72.4958 70.0547V63.8258H73.3376V72.4748H72.5168L68.0977 66.2458C67.803 65.8249 67.3822 65.0673 67.3822 65.0673H67.3611C67.3611 65.0673 67.4453 65.7828 67.4453 66.2458V72.4748H66.6035V63.8258Z" fill="#B44196"/>
<path d="M82.7441 64.6044H79.6296V63.8468H86.7003V64.6044H83.5859V72.4958H82.7441V64.6044Z" fill="#B44196"/>
<path d="M96.6961 69.7391H93.2029L92.2138 72.4958H91.3089L94.4865 63.8468H95.3914L98.569 72.4958H97.6642L96.6961 69.7391ZM94.9285 64.7306C94.9285 64.7306 94.7391 65.4461 94.5918 65.846L93.4344 68.9815H96.4226L95.2862 65.846C95.1389 65.4461 94.9495 64.7306 94.9495 64.7306H94.9285Z" fill="#B44196"/>
<path d="M104.924 63.8258H105.766V71.7172H109.785V72.4748H104.924V63.8258Z" fill="#B44196"/>
<path d="M128.262 63.6785C130.261 63.6785 131.334 64.6885 131.334 64.6885L130.871 65.3199C130.871 65.3199 129.861 64.4571 128.283 64.4571C126.178 64.4571 124.769 66.0774 124.769 68.1187C124.769 70.2441 126.242 71.8224 128.199 71.8224C129.882 71.8224 130.913 70.5598 130.913 70.5598V69.0867H129.44V68.3291H131.734V72.4747H130.955V71.8224C130.955 71.633 130.976 71.4436 130.976 71.4436H130.955C130.955 71.4436 129.966 72.6221 128.136 72.6221C125.779 72.6221 123.906 70.7071 123.906 68.1397C123.906 65.6566 125.779 63.6785 128.262 63.6785Z" fill="#B44196"/>
<path d="M138.742 63.8258H141.309C142.193 63.8258 142.593 63.9099 142.929 64.0572C143.75 64.415 144.234 65.2357 144.234 66.2879C144.234 67.4663 143.561 68.3502 142.593 68.6237V68.6448C142.593 68.6448 142.677 68.75 142.824 68.9815L144.718 72.4748H143.729L141.772 68.8342H139.583V72.4748H138.742V63.8258V63.8258ZM141.646 68.0766C142.698 68.0766 143.35 67.4032 143.35 66.3089C143.35 65.5934 143.077 65.0673 142.572 64.7938C142.319 64.6675 142.003 64.5833 141.33 64.5833H139.583V68.0766H141.646V68.0766Z" fill="#B44196"/>
<path d="M155.219 63.6785C157.66 63.6785 159.638 65.6145 159.638 68.0976C159.638 70.6439 157.681 72.6221 155.219 72.6221C152.757 72.6221 150.8 70.6229 150.8 68.0976C150.821 65.6145 152.778 63.6785 155.219 63.6785ZM155.219 71.8434C157.155 71.8434 158.733 70.2231 158.733 68.0976C158.733 66.0354 157.155 64.4571 155.219 64.4571C153.262 64.4571 151.705 66.0143 151.705 68.0976C151.705 70.2231 153.262 71.8434 155.219 71.8434Z" fill="#B44196"/>
<path d="M166.372 63.8258H167.235V69.4444C167.235 70.9386 168.203 71.8434 169.676 71.8434C171.17 71.8434 172.138 70.9386 172.138 69.4234V63.8258H172.98V69.4655C172.98 71.3805 171.633 72.6221 169.676 72.6221C167.698 72.6221 166.351 71.3805 166.351 69.4655V63.8258H166.372Z" fill="#B44196"/>
<path d="M180.324 63.8258H183.312C184.87 63.8258 185.985 64.8359 185.985 66.4352C185.985 68.0556 184.87 69.0867 183.312 69.0867H181.187V72.4958H180.345V63.8258H180.324ZM183.207 68.3291C184.364 68.3291 185.122 67.6347 185.122 66.4352C185.122 65.2567 184.364 64.5833 183.228 64.5833H181.187V68.3081H183.207V68.3291Z" fill="#B44196"/>
</g>
<defs>
<clipPath id="clip0_1_2">
<rect width="189.899" height="75" fill="white"/>
</clipPath>
</defs>
</svg>
